<svg xmlns="http://www.w3.org/2000/svg" enable-background="new 0 0 68 68" viewBox="0 0 68 68" id="information-technology"><path d="M55.3,2H12.7c-2.2,0-3.9,1.8-3.9,3.9v37c0,2.2,1.8,3.9,3.9,3.9h42.7c2.2,0,3.9-1.8,3.9-3.9v-37C59.3,3.8,57.5,2,55.3,2z
		 M12.3,5.9c0-0.2,0.1-0.3,0.3-0.3h42.7c0.2,0,0.3,0.1,0.3,0.3v37c0,0.2-0.1,0.3-0.3,0.3H12.7c-0.2,0-0.3-0.1-0.3-0.3V5.9z"></path><polygon points="31 60.3 29.7 66 38.2 66 36.7 60.3"></polygon><path d="M63.2,61.9l-4.4-12c-0.4-1.2-1.6-2-2.9-2H12c-1.3,0-2.5,0.8-2.9,2l-4.4,12C4,63.9,5.5,66,7.7,66h20.2l1.6-6.8
			c0.1-0.4,0.5-0.7,0.9-0.7h7.1c0.4,0,0.8,0.3,0.9,0.7l1.9,6.8h20.3C62.4,66,64,63.9,63.2,61.9z"></path><g><path d="M45.7,24.4c0.3-0.4,0.6-0.7,0.9-1.1c2.2-2.8,2.9-5.4,1.8-7.2c-0.6-1-1.9-2.2-5.1-2.2c-1.1,0-2.2,0.2-3.5,0.4
			c-1.3-4-3.4-6.6-5.9-6.6c-2.5,0-4.6,2.5-5.9,6.6c-1.2-0.3-2.4-0.4-3.5-0.4c-3.2,0-4.5,1.2-5.1,2.2c-1.2,2.1-0.1,5.2,2.7,8.3
			c-2.8,3.1-3.9,6.2-2.7,8.3c0.6,1,1.9,2.2,5.1,2.2c1.1,0,2.2-0.2,3.5-0.4c1.3,4,3.4,6.6,5.9,6.6c2.5,0,4.6-2.5,5.9-6.6
			c1.2,0.3,2.4,0.4,3.5,0.4c3.2,0,4.5-1.2,5.1-2.2c1.1-1.8,0.4-4.4-1.8-7.2C46.3,25.2,46,24.8,45.7,24.4z M24.6,33.2
			c-1.8,0-3-0.5-3.5-1.3c-0.7-1.3,0.2-3.6,2.4-6.1c1,0.9,2.1,1.9,3.4,2.8c0.2,1.5,0.4,3,0.7,4.3C26.6,33.1,25.6,33.2,24.6,33.2z
			 M26.7,26.1c-0.7-0.6-1.3-1.1-1.9-1.7c0.6-0.6,1.2-1.1,1.9-1.7c0,0.5,0,1.1,0,1.7C26.7,25,26.7,25.6,26.7,26.1z M26.9,20.4
			c-1.3,0.9-2.4,1.8-3.4,2.8c-2.3-2.6-3.2-4.9-2.4-6.1c0.5-0.8,1.7-1.3,3.5-1.3c0.9,0,1.9,0.1,3,0.3C27.3,17.4,27.1,18.8,26.9,20.4z
			 M39.1,19c-0.5-0.3-1-0.6-1.4-0.9c-0.5-0.3-1-0.5-1.5-0.8c0.8-0.3,1.6-0.6,2.4-0.8C38.8,17.3,39,18.1,39.1,19z M34,9.6
			c1.5,0,3,1.9,4.1,5.2c-1.3,0.4-2.7,0.9-4.1,1.5c-1.4-0.6-2.8-1.1-4.1-1.5C31,11.5,32.5,9.6,34,9.6z M29.4,16.5
			c0.8,0.2,1.6,0.5,2.4,0.8c-0.5,0.3-1,0.5-1.5,0.8c-0.5,0.3-1,0.6-1.4,0.9C29,18.1,29.2,17.3,29.4,16.5z M28.9,29.9
			c0.5,0.3,0.9,0.6,1.4,0.9c0.5,0.3,1,0.5,1.5,0.8c-0.8,0.3-1.6,0.6-2.4,0.8C29.2,31.6,29,30.8,28.9,29.9z M34,39.3
			c-1.5,0-3-1.9-4.1-5.2c1.3-0.4,2.7-0.9,4.1-1.5c1.4,0.6,2.8,1.1,4.1,1.5C37,37.4,35.5,39.3,34,39.3z M38.6,32.4
			c-0.8-0.2-1.6-0.5-2.4-0.8c0.5-0.3,1-0.5,1.5-0.8c0.5-0.3,1-0.6,1.4-0.9C39,30.8,38.8,31.6,38.6,32.4z M39.4,27.5
			c-0.8,0.6-1.7,1.1-2.6,1.7c-0.9,0.5-1.8,1-2.7,1.4c-0.9-0.4-1.8-0.9-2.7-1.4c-0.9-0.5-1.8-1.1-2.6-1.7c-0.1-1-0.1-2-0.1-3.1
			c0-1.1,0-2.1,0.1-3.1c0.8-0.6,1.7-1.1,2.6-1.7c0.9-0.5,1.8-1,2.7-1.4c0.9,0.4,1.8,0.9,2.7,1.4c0.9,0.5,1.8,1.1,2.6,1.7
			c0.1,1,0.1,2,0.1,3.1C39.5,25.5,39.5,26.6,39.4,27.5z M43.4,15.7c1.8,0,3,0.5,3.5,1.3c0.6,1.1,0,3-1.7,5.2
			c-0.2,0.3-0.5,0.6-0.8,0.9c-1-1-2.1-1.9-3.4-2.8c-0.2-1.5-0.4-3-0.7-4.3C41.4,15.8,42.4,15.7,43.4,15.7z M41.3,22.8
			c0.7,0.6,1.3,1.1,1.9,1.7c-0.6,0.6-1.2,1.1-1.9,1.7c0-0.5,0-1.1,0-1.7C41.3,23.9,41.3,23.3,41.3,22.8z M46.9,31.9
			c-0.5,0.8-1.7,1.3-3.5,1.3c-0.9,0-1.9-0.1-3-0.3c0.3-1.3,0.6-2.8,0.7-4.3c1.2-0.9,2.4-1.8,3.4-2.8c0.3,0.3,0.5,0.6,0.8,0.9
			C46.9,28.9,47.5,30.8,46.9,31.9z"></path><path d="M37.4,24.4c0,1.9-1.5,3.4-3.4,3.4s-3.4-1.5-3.4-3.4c0-1.9,1.5-3.4,3.4-3.4S37.4,22.6,37.4,24.4z"></path></g></svg>