<svg xmlns="http://www.w3.org/2000/svg" width="512" height="512" enable-background="new 0 0 374.645 460" viewBox="0 0 374.645 460" id="signal"><g><g><path d="m254.645 380h-60v-80h45c2.762 0 5-2.238 5-5s-2.238-5-5-5h-45v-30h45c2.762 0 5-2.238 5-5s-2.238-5-5-5h-45v-30h45c2.762 0 5-2.239 5-5s-2.238-5-5-5h-45v-70.284c22.468-2.496 40-21.593 40-44.716 0-24.813-20.187-45-45-45s-45 20.187-45 45c0 23.122 17.532 42.219 40 44.716v70.284h-45c-2.761 0-5 2.239-5 5s2.239 5 5 5h45v30h-45c-2.761 0-5 2.238-5 5s2.239 5 5 5h45v30h-45c-2.761 0-5 2.238-5 5s2.239 5 5 5h45v80h-60v40h130zm-90-285c0-13.785 11.215-25 25-25s25 11.215 25 25-11.215 25-25 25-25-11.215-25-25z"></path><path d="M189.645 80c-8.271 0-15 6.729-15 15s6.729 15 15 15 15-6.729 15-15-6.729-15-15-15zM94.645 430h190v30h-190zM10 96.924c0-33.389 13.002-64.779 36.612-88.388 1.953-1.953 1.953-5.119 0-7.071s-5.118-1.952-7.071 0c-25.499 25.497-39.541 59.399-39.541 95.459s14.042 69.961 39.541 95.459c.977.976 2.256 1.464 3.536 1.464s2.559-.488 3.536-1.464c1.953-1.953 1.953-5.119 0-7.071-23.611-23.61-36.613-55-36.613-88.388z"></path><path d="M74.896 29.748c-1.953-1.952-5.118-1.952-7.071 0-37.04 37.041-37.04 97.31 0 134.351.977.976 2.256 1.464 3.536 1.464s2.559-.488 3.536-1.464c1.953-1.953 1.953-5.119 0-7.071-33.142-33.141-33.142-87.066 0-120.208 1.952-1.953 1.952-5.119-.001-7.072zM99.645 137.279c1.28 0 2.559-.488 3.536-1.464 1.953-1.953 1.953-5.119 0-7.071-8.5-8.5-13.18-19.8-13.18-31.82s4.681-23.32 13.18-31.82c1.953-1.953 1.953-5.119 0-7.071s-5.118-1.952-7.071 0c-10.389 10.388-16.11 24.2-16.11 38.891s5.721 28.503 16.109 38.891c.976.976 2.256 1.464 3.536 1.464zM335.104 1.464c-1.951-1.952-5.119-1.952-7.07 0-1.953 1.953-1.953 5.119 0 7.071 23.609 23.609 36.611 55 36.611 88.388s-13.002 64.779-36.611 88.388c-1.953 1.953-1.953 5.119 0 7.071.976.976 2.256 1.464 3.535 1.464s2.56-.488 3.535-1.464c25.499-25.498 39.541-59.399 39.541-95.459s-14.042-69.961-39.541-95.459z"></path><path d="M306.819 29.748c-1.951-1.952-5.119-1.952-7.07 0-1.953 1.953-1.953 5.119 0 7.071 16.054 16.054 24.896 37.4 24.896 60.104 0 22.705-8.842 44.05-24.896 60.104-1.953 1.953-1.953 5.119 0 7.071.976.976 2.255 1.464 3.535 1.464 1.279 0 2.56-.488 3.535-1.464 17.943-17.943 27.825-41.8 27.825-67.175s-9.881-49.231-27.825-67.175zM271.465 58.032c-1.953 1.953-1.953 5.119 0 7.071 8.499 8.5 13.18 19.8 13.18 31.82s-4.681 23.32-13.18 31.82c-1.953 1.953-1.953 5.119 0 7.071.976.976 2.256 1.464 3.535 1.464s2.56-.488 3.535-1.464c10.389-10.388 16.109-24.2 16.109-38.891s-5.721-28.503-16.109-38.891c-1.951-1.952-5.119-1.952-7.07 0z"></path></g></g></svg>