<svg xmlns="http://www.w3.org/2000/svg" enable-background="new 0 0 66 66" viewBox="0 0 66 66" id="data-center"><circle cx="23" cy="62" r="2"></circle><circle cx="43" cy="62" r="2"></circle><path d="M12 61c-.55 0-1 .45-1 1s.45 1 1 1h7.13C19.04 62.68 19 62.35 19 62c0-.35.04-.68.13-1H12zM54 61h-7.13c.09.32.13.65.13 1 0 .35-.04.68-.13 1H54c.56 0 1-.45 1-1S54.56 61 54 61zM26.87 61c.09.32.13.65.13 1 0 .35-.04.68-.13 1h12.26C39.04 62.68 39 62.35 39 62c0-.35.04-.68.13-1H26.87zM31 27H15v27h16V27zM23 50c-.55 0-1-.45-1-1 0-.55.45-1 1-1 .55 0 1 .45 1 1C24 49.55 23.55 50 23 50zM27 45h-8c-.55 0-1-.45-1-1s.45-1 1-1h8c.55 0 1 .45 1 1S27.55 45 27 45zM27 41h-8c-.55 0-1-.45-1-1s.45-1 1-1h8c.55 0 1 .45 1 1S27.55 41 27 41zM27 37h-8c-.55 0-1-.45-1-1s.45-1 1-1h8c.55 0 1 .45 1 1S27.55 37 27 37zM27 33h-8c-.55 0-1-.45-1-1s.45-1 1-1h8c.55 0 1 .45 1 1S27.55 33 27 33zM51 27H35v27h16V27zM43 50c-.55 0-1-.45-1-1 0-.55.45-1 1-1 .55 0 1 .45 1 1C44 49.55 43.55 50 43 50zM47 45h-8c-.55 0-1-.45-1-1s.45-1 1-1h8c.55 0 1 .45 1 1S47.55 45 47 45zM47 41h-8c-.55 0-1-.45-1-1s.45-1 1-1h8c.55 0 1 .45 1 1S47.55 41 47 41zM47 37h-8c-.55 0-1-.45-1-1s.45-1 1-1h8c.55 0 1 .45 1 1S47.55 37 47 37zM47 33h-8c-.55 0-1-.45-1-1s.45-1 1-1h8c.55 0 1 .45 1 1S47.55 33 47 33zM23 58c.35 0 .68.04 1 .13V56h-2v2.13C22.32 58.04 22.65 58 23 58zM43 58c.35 0 .68.04 1 .13V56h-2v2.13C42.32 58.04 42.65 58 43 58z"></path><path d="M56.02,21.71c-0.13,0-0.26,0.03-0.39,0.04c0.27-1,0.43-2.06,0.43-3.15c0-6.6-5.35-11.94-11.94-11.94c-2.32,0-4.48,0.67-6.31,1.82C35,4.56,30.41,2,25.22,2C17.04,2,10.35,8.35,9.78,16.39C5.29,17.72,2,21.87,2,26.79c0,5.99,4.85,10.84,10.84,10.84H13V25h20h20v12.63h2.57c0.15,0.01,0.3,0.05,0.45,0.05c4.41,0,7.98-3.57,7.98-7.98S60.43,21.71,56.02,21.71z M25.22,7c-5.48,0-10.07,4.28-10.45,9.75c-0.04,0.53-0.48,0.93-1,0.93c-0.02,0-0.05,0-0.07,0c-0.55-0.04-0.97-0.52-0.93-1.07C13.23,10.1,18.7,5,25.22,5c0.55,0,1,0.45,1,1S25.78,7,25.22,7z"></path></svg>