<svg xmlns="http://www.w3.org/2000/svg" viewBox="0 0 128 128" id="mechanical-arm"><path d="m23.21 41.96-1.74 34.61A6.005 6.005 0 0 0 18 82v8h24v-8a5.988 5.988 0 0 0-3.47-5.43l-1.7-33.69a15.797 15.797 0 0 1-3.95 1L34.49 76h-8.98l1.63-32.49a15.782 15.782 0 0 1-3.93-1.55zM8 128h44a8.01 8.01 0 0 0 8-8v-6a8.01 8.01 0 0 0-8-8h-.43l-2.55-8.32c-.03-.09-.06-.19-.1-.29A5.023 5.023 0 0 0 44.27 94H15.73a5.023 5.023 0 0 0-4.65 3.39c-.04.1-.07.2-.1.29L8.43 106H8a8.01 8.01 0 0 0-8 8v6a8.01 8.01 0 0 0 8 8zm40-13a2 2 0 0 1 4 0v4a2 2 0 0 1-4 0zm-28 4a2 2 0 0 1-4 0v-4a2 2 0 0 1 4 0zm8 0a2 2 0 0 1-4 0v-4a2 2 0 0 1 4 0zm8 0a2 2 0 0 1-4 0v-4a2 2 0 0 1 4 0zm8 0a2 2 0 0 1-4 0v-4a2 2 0 0 1 4 0zM14.8 98.86c.21-.54.56-.86.93-.86h28.54c.37 0 .72.32.93.86l2.19 7.14H12.61zM8 115a2 2 0 0 1 4 0v4a2 2 0 0 1-4 0zm96-51a6.01 6.01 0 1 0-4.24-1.76A5.928 5.928 0 0 0 104 64z"></path><circle cx="72" cy="12" r="12"></circle><path d="M60.67 23.284a16.094 16.094 0 0 1-2.461-3.212l-11.304 6.216a15.482 15.482 0 0 1-.19 4.67zM57.024 6.42l-17.97 7.777a16.083 16.083 0 0 1 3.552 2.822l13.435-5.814a15.874 15.874 0 0 1 .983-4.785z"></path><circle cx="31" cy="28" r="12"></circle><path d="M115.177 95.03a2 2 0 1 0 .691 3.94 14.98 14.98 0 0 0 5.811-26.925 14.403 14.403 0 0 0-9.317-2.626l-1.857-3.834a9.91 9.91 0 0 1-3.498 1.953l2.376 4.908a2.003 2.003 0 0 0 2.146 1.099 10.392 10.392 0 0 1 7.845 1.77 10.982 10.982 0 0 1-4.197 19.715zM96.71 51.17 78.79 26.468a15.843 15.843 0 0 1-4.015 1.276l19.72 27.185a9.924 9.924 0 0 1 2.215-3.757zM104 48c.309 0 .614.017.917.045L86.544 18.63a16.026 16.026 0 0 1-2.381 3.739l16.396 26.248A9.992 9.992 0 0 1 104 48z"></path></svg>